<svg xmlns="http://www.w3.org/2000/svg" viewBox="0 0 1200 800" role="img" aria-labelledby="title desc">
  <title id="title">YouTube Hawaii Morning News artwork</title>
  <desc id="desc">Sunrise editorial artwork with a video playlist interface for the YouTube Hawaii Morning News project.</desc>
  <defs>
    <linearGradient id="sky" x1="0%" y1="0%" x2="100%" y2="100%">
      <stop offset="0%" stop-color="#13243d" />
      <stop offset="45%" stop-color="#ec7f4d" />
      <stop offset="100%" stop-color="#f7d28f" />
    </linearGradient>
    <linearGradient id="panel" x1="0%" y1="0%" x2="100%" y2="100%">
      <stop offset="0%" stop-color="#17212f" />
      <stop offset="100%" stop-color="#0d141f" />
    </linearGradient>
  </defs>
  <rect width="1200" height="800" fill="#0d1623" />
  <rect width="1200" height="520" fill="url(#sky)" />
  <circle cx="852" cy="202" r="118" fill="#fff0c9" opacity="0.9" />
  <path d="M0 492c112-22 216-36 314-28 85 6 143 32 220 32 96 0 173-38 288-38 128 0 241 34 378 70v272H0V492Z" fill="#1f5b63" />
  <path d="M0 560c82-18 154-38 248-38 138 0 209 58 336 58 93 0 172-26 270-26 128 0 225 34 346 62v184H0V560Z" fill="#103b4f" />
  <path d="M116 642c52-83 103-132 154-148 32-10 74-7 96 12-44 8-74 24-99 56-26 34-36 67-45 112l-106-32Z" fill="#16313d" opacity="0.95" />
  <path d="M298 650c48-74 95-114 151-130 38-11 79-7 109 13-51 9-92 29-121 64-20 25-33 49-48 88l-91-35Z" fill="#16313d" opacity="0.9" />
  <g transform="translate(458 118)">
    <rect width="618" height="470" rx="34" fill="url(#panel)" />
    <rect x="34" y="34" width="550" height="82" rx="22" fill="#233247" />
    <circle cx="84" cy="75" r="16" fill="#f06a46" />
    <circle cx="126" cy="75" r="16" fill="#f7c97f" />
    <circle cx="168" cy="75" r="16" fill="#f4f0e6" opacity="0.55" />
    <rect x="42" y="146" width="240" height="276" rx="26" fill="#f06a46" />
    <circle cx="162" cy="284" r="74" fill="#fff4e1" opacity="0.15" />
    <path d="M146 244 214 284 146 324v-80Z" fill="#fff4e1" />
    <rect x="318" y="156" width="228" height="36" rx="18" fill="#f4f0e6" opacity="0.92" />
    <rect x="318" y="214" width="188" height="22" rx="11" fill="#f4f0e6" opacity="0.32" />
    <rect x="318" y="272" width="238" height="36" rx="18" fill="#f4f0e6" opacity="0.92" />
    <rect x="318" y="330" width="176" height="22" rx="11" fill="#f4f0e6" opacity="0.32" />
    <rect x="318" y="388" width="216" height="36" rx="18" fill="#f7c97f" />
  </g>
  <path d="M96 676h270" stroke="#f7d28f" stroke-width="10" stroke-linecap="round" opacity="0.7" />
  <path d="M96 712h186" stroke="#f7d28f" stroke-width="10" stroke-linecap="round" opacity="0.42" />
</svg>
